<mxfile host="app.diagrams.net" agent="Mozilla/5.0 (X11; CrOS armv7l 13597.84.0) AppleWebKit/537.36 (KHTML, like Gecko) Chrome/92.0.4515.98 Safari/537.36" version="28.2.5">
  <diagram name="Página-1" id="TZJETjiAyGG7rZzKX0RN">
    <mxGraphModel dx="1094" dy="594" grid="1" gridSize="10" guides="1" tooltips="1" connect="1" arrows="1" fold="1" page="1" pageScale="1" pageWidth="1169" pageHeight="827" math="0" shadow="0">
      <root>
        <mxCell id="0" />
        <mxCell id="1" parent="0" />
        <mxCell id="hc999raAqwptbgyKpUEe-1" style="edgeStyle=orthogonalEdgeStyle;rounded=0;orthogonalLoop=1;jettySize=auto;html=1;exitX=0.5;exitY=1;exitDx=0;exitDy=0;" parent="1" edge="1">
          <mxGeometry relative="1" as="geometry">
            <mxPoint x="360" y="470" as="sourcePoint" />
            <mxPoint x="360" y="470" as="targetPoint" />
          </mxGeometry>
        </mxCell>
        <mxCell id="hc999raAqwptbgyKpUEe-2" value="Forçar a porta" style="rounded=1;whiteSpace=wrap;html=1;fillColor=#dae8fc;gradientColor=#7ea6e0;strokeColor=#6c8ebf;" parent="1" vertex="1">
          <mxGeometry x="670" y="150" width="170" height="30" as="geometry" />
        </mxCell>
        <mxCell id="hc999raAqwptbgyKpUEe-3" style="edgeStyle=orthogonalEdgeStyle;rounded=0;orthogonalLoop=1;jettySize=auto;html=1;entryX=0.5;entryY=0;entryDx=0;entryDy=0;elbow=vertical;curved=1;" parent="1" source="hc999raAqwptbgyKpUEe-4" target="hc999raAqwptbgyKpUEe-2" edge="1">
          <mxGeometry relative="1" as="geometry" />
        </mxCell>
        <mxCell id="hc999raAqwptbgyKpUEe-4" value="Um robô acorda no laboratório sem saber quem criou ele.Ele precisa decidir o que fazer." style="shape=process;whiteSpace=wrap;html=1;backgroundOutline=1;fillColor=#e1d5e7;strokeColor=#9673a6;" parent="1" vertex="1">
          <mxGeometry x="420" y="50" width="220" height="100" as="geometry" />
        </mxCell>
        <mxCell id="hc999raAqwptbgyKpUEe-5" style="edgeStyle=orthogonalEdgeStyle;rounded=0;orthogonalLoop=1;jettySize=auto;html=1;entryX=0.5;entryY=0;entryDx=0;entryDy=0;curved=1;" parent="1" source="hc999raAqwptbgyKpUEe-6" target="hc999raAqwptbgyKpUEe-9" edge="1">
          <mxGeometry relative="1" as="geometry" />
        </mxCell>
        <mxCell id="hc999raAqwptbgyKpUEe-6" value="Tentar hackear o sistema" style="rounded=1;whiteSpace=wrap;html=1;fillColor=#e1d5e7;strokeColor=#9673a6;" parent="1" vertex="1">
          <mxGeometry x="250" y="150" width="160" height="30" as="geometry" />
        </mxCell>
        <mxCell id="hc999raAqwptbgyKpUEe-7" style="edgeStyle=entityRelationEdgeStyle;rounded=0;orthogonalLoop=1;jettySize=auto;html=1;entryX=0.425;entryY=0.017;entryDx=0;entryDy=0;entryPerimeter=0;" parent="1" source="hc999raAqwptbgyKpUEe-4" target="hc999raAqwptbgyKpUEe-6" edge="1">
          <mxGeometry relative="1" as="geometry" />
        </mxCell>
        <mxCell id="hc999raAqwptbgyKpUEe-8" style="edgeStyle=orthogonalEdgeStyle;rounded=0;orthogonalLoop=1;jettySize=auto;html=1;entryX=0.5;entryY=0;entryDx=0;entryDy=0;curved=1;" parent="1" source="hc999raAqwptbgyKpUEe-9" target="hc999raAqwptbgyKpUEe-17" edge="1">
          <mxGeometry relative="1" as="geometry" />
        </mxCell>
        <mxCell id="hc999raAqwptbgyKpUEe-9" value="Consegue acessar informações secretas sobre sua criação." style="rounded=1;whiteSpace=wrap;html=1;fillColor=#6a00ff;fontColor=#ffffff;strokeColor=#3700CC;" parent="1" vertex="1">
          <mxGeometry x="370" y="230" width="140" height="60" as="geometry" />
        </mxCell>
        <mxCell id="hc999raAqwptbgyKpUEe-10" style="edgeStyle=orthogonalEdgeStyle;rounded=0;orthogonalLoop=1;jettySize=auto;html=1;entryX=0.5;entryY=0;entryDx=0;entryDy=0;" parent="1" source="hc999raAqwptbgyKpUEe-11" target="hc999raAqwptbgyKpUEe-18" edge="1">
          <mxGeometry relative="1" as="geometry" />
        </mxCell>
        <mxCell id="hc999raAqwptbgyKpUEe-11" value="Ativar o alarme guardas aparecem." style="rounded=1;whiteSpace=wrap;html=1;fillColor=#0050ef;fontColor=#ffffff;strokeColor=#001DBC;" parent="1" vertex="1">
          <mxGeometry x="590" y="230" width="150" height="60" as="geometry" />
        </mxCell>
        <mxCell id="hc999raAqwptbgyKpUEe-12" style="edgeStyle=orthogonalEdgeStyle;rounded=0;orthogonalLoop=1;jettySize=auto;html=1;entryX=0.56;entryY=-0.017;entryDx=0;entryDy=0;entryPerimeter=0;curved=1;" parent="1" source="hc999raAqwptbgyKpUEe-2" target="hc999raAqwptbgyKpUEe-11" edge="1">
          <mxGeometry relative="1" as="geometry" />
        </mxCell>
        <mxCell id="hc999raAqwptbgyKpUEe-13" style="edgeStyle=orthogonalEdgeStyle;rounded=0;orthogonalLoop=1;jettySize=auto;html=1;entryX=0.25;entryY=0;entryDx=0;entryDy=0;curved=1;" parent="1" source="hc999raAqwptbgyKpUEe-14" target="hc999raAqwptbgyKpUEe-22" edge="1">
          <mxGeometry relative="1" as="geometry" />
        </mxCell>
        <mxCell id="hc999raAqwptbgyKpUEe-14" value="Lutar contra eles" style="rounded=1;whiteSpace=wrap;html=1;fillColor=#1ba1e2;fontColor=#ffffff;strokeColor=#006EAF;" parent="1" vertex="1">
          <mxGeometry x="560" y="330" width="110" height="20" as="geometry" />
        </mxCell>
        <mxCell id="hc999raAqwptbgyKpUEe-15" style="edgeStyle=orthogonalEdgeStyle;rounded=0;orthogonalLoop=1;jettySize=auto;html=1;entryX=0.375;entryY=0;entryDx=0;entryDy=0;entryPerimeter=0;" parent="1" source="hc999raAqwptbgyKpUEe-11" target="hc999raAqwptbgyKpUEe-14" edge="1">
          <mxGeometry relative="1" as="geometry" />
        </mxCell>
        <mxCell id="hc999raAqwptbgyKpUEe-16" style="edgeStyle=orthogonalEdgeStyle;rounded=0;orthogonalLoop=1;jettySize=auto;html=1;entryX=0.5;entryY=0;entryDx=0;entryDy=0;" parent="1" source="hc999raAqwptbgyKpUEe-17" target="hc999raAqwptbgyKpUEe-21" edge="1">
          <mxGeometry relative="1" as="geometry" />
        </mxCell>
        <mxCell id="hc999raAqwptbgyKpUEe-17" value="Revelar a verdade" style="rounded=1;whiteSpace=wrap;html=1;fillColor=#6a00ff;fontColor=#ffffff;strokeColor=#3333FF;" parent="1" vertex="1">
          <mxGeometry x="230" y="330" width="120" height="20" as="geometry" />
        </mxCell>
        <mxCell id="hc999raAqwptbgyKpUEe-18" value="Fugir pelos dutos" style="rounded=1;whiteSpace=wrap;html=1;fillColor=#1ba1e2;fontColor=#ffffff;strokeColor=#006EAF;" parent="1" vertex="1">
          <mxGeometry x="730" y="330" width="120" height="20" as="geometry" />
        </mxCell>
        <mxCell id="hc999raAqwptbgyKpUEe-19" value="Guardar o segredo" style="rounded=1;whiteSpace=wrap;html=1;fillColor=#6a00ff;fontColor=#ffffff;strokeColor=#3700CC;" parent="1" vertex="1">
          <mxGeometry x="370" y="330" width="120" height="20" as="geometry" />
        </mxCell>
        <mxCell id="hc999raAqwptbgyKpUEe-20" style="edgeStyle=orthogonalEdgeStyle;rounded=0;orthogonalLoop=1;jettySize=auto;html=1;entryX=0.583;entryY=-0.15;entryDx=0;entryDy=0;entryPerimeter=0;curved=1;" parent="1" source="hc999raAqwptbgyKpUEe-9" target="hc999raAqwptbgyKpUEe-19" edge="1">
          <mxGeometry relative="1" as="geometry" />
        </mxCell>
        <mxCell id="LC_DM_ahrxtRWllKbo_z-2" style="edgeStyle=orthogonalEdgeStyle;rounded=0;orthogonalLoop=1;jettySize=auto;html=1;" edge="1" parent="1" source="hc999raAqwptbgyKpUEe-21">
          <mxGeometry relative="1" as="geometry">
            <mxPoint x="540" y="520" as="targetPoint" />
          </mxGeometry>
        </mxCell>
        <mxCell id="hc999raAqwptbgyKpUEe-21" value="Ele ativa outros robôs e começa uma revolução" style="rounded=1;whiteSpace=wrap;html=1;fillColor=#6a00ff;fontColor=#ffffff;strokeColor=#3700CC;" parent="1" vertex="1">
          <mxGeometry x="230" y="380" width="120" height="60" as="geometry" />
        </mxCell>
        <mxCell id="LC_DM_ahrxtRWllKbo_z-1" style="edgeStyle=orthogonalEdgeStyle;rounded=0;orthogonalLoop=1;jettySize=auto;html=1;" edge="1" parent="1" source="hc999raAqwptbgyKpUEe-22">
          <mxGeometry relative="1" as="geometry">
            <mxPoint x="540" y="520" as="targetPoint" />
            <Array as="points">
              <mxPoint x="540" y="410" />
            </Array>
          </mxGeometry>
        </mxCell>
        <mxCell id="hc999raAqwptbgyKpUEe-22" value="ganhou e conseguiu fugir" style="rounded=1;whiteSpace=wrap;html=1;fillColor=#0050ef;fontColor=#ffffff;strokeColor=#001DBC;" parent="1" vertex="1">
          <mxGeometry x="580" y="380" width="120" height="60" as="geometry" />
        </mxCell>
        <mxCell id="hc999raAqwptbgyKpUEe-23" value="fugiu." style="rounded=1;whiteSpace=wrap;html=1;fillColor=#0050ef;fontColor=#ffffff;strokeColor=#001DBC;" parent="1" vertex="1">
          <mxGeometry x="750" y="380" width="120" height="60" as="geometry" />
        </mxCell>
        <mxCell id="hc999raAqwptbgyKpUEe-24" style="edgeStyle=orthogonalEdgeStyle;rounded=0;orthogonalLoop=1;jettySize=auto;html=1;entryX=0.417;entryY=0;entryDx=0;entryDy=0;entryPerimeter=0;curved=1;" parent="1" source="hc999raAqwptbgyKpUEe-18" target="hc999raAqwptbgyKpUEe-23" edge="1">
          <mxGeometry relative="1" as="geometry" />
        </mxCell>
        <mxCell id="LC_DM_ahrxtRWllKbo_z-3" value="descobriu que quem o criou esta morto...&lt;br&gt;FIM!!" style="rounded=1;whiteSpace=wrap;html=1;fillColor=#0050ef;fontColor=#ffffff;strokeColor=#001DBC;" vertex="1" parent="1">
          <mxGeometry x="490" y="520" width="120" height="60" as="geometry" />
        </mxCell>
      </root>
    </mxGraphModel>
  </diagram>
</mxfile>
